<svg xmlns="http://www.w3.org/2000/svg" width="256" height="256" viewBox="0 0 100 100"><rect width="100" height="100" rx="20" fill="#5845df"></rect><path d="M40.12 71.92L36.52 61.28L15.08 61.28Q14.52 62.88 13.88 64.76Q13.24 66.64 12.64 68.44Q12.04 70.24 11.48 71.80Q10.92 73.36 10.60 74.40L10.60 74.40Q9.48 74.88 7.96 74.88L7.96 74.88Q6.68 74.88 5.68 74.20Q4.68 73.52 4.68 72L4.68 72Q4.68 71.28 4.92 70.52Q5.16 69.76 5.48 68.88L5.48 68.88Q6.68 65.52 8.56 60.24Q10.44 54.96 12.64 49.00Q14.84 43.04 17.12 37.00Q19.40 30.96 21.32 26.16L21.32 26.16Q21.96 25.84 23.24 25.52Q24.52 25.20 25.88 25.20L25.88 25.20Q27.48 25.20 28.96 25.68Q30.44 26.16 30.84 27.28L30.84 27.28Q32.76 31.92 34.96 37.88Q37.16 43.84 39.40 50.08Q41.64 56.32 43.68 62.36Q45.72 68.40 47.32 73.28L47.32 73.28Q46.68 74 45.80 74.44Q44.92 74.88 43.80 74.88L43.80 74.88Q42.28 74.88 41.48 74.20Q40.68 73.52 40.12 71.92L40.12 71.92ZM26.12 30.64L25.80 30.64Q24.92 33.04 23.80 36.12Q22.68 39.20 21.48 42.56Q20.28 45.92 19.08 49.36Q17.88 52.80 16.84 55.92L16.84 55.92L34.84 55.92Q33.64 52.32 32.36 48.68Q31.08 45.04 29.92 41.68Q28.76 38.32 27.76 35.48Q26.76 32.64 26.12 30.64L26.12 30.64ZM60.28 74.64L60.28 74.64Q56.76 74.64 56.76 71.76L56.76 71.76L56.76 26.56Q58.20 25.12 61.08 25.12L61.08 25.12Q63.00 25.12 64.36 25.88Q65.72 26.64 66.84 28.64L66.84 28.64L82.12 54.24Q83.08 55.92 84.12 57.80Q85.16 59.68 86.12 61.56Q87.08 63.44 87.92 65.08Q88.76 66.72 89.32 67.84L89.32 67.84L89.64 67.76Q89 61.28 88.88 54.72Q88.76 48.16 88.76 41.92L88.76 41.92L88.76 25.76Q89.24 25.60 90.04 25.40Q90.84 25.20 91.80 25.20L91.80 25.20Q95.32 25.20 95.32 28.08L95.32 28.08L95.32 73.36Q94.60 74 93.48 74.36Q92.36 74.72 91 74.72L91 74.72Q89.08 74.72 87.72 73.96Q86.36 73.20 85.24 71.20L85.24 71.20L70.04 45.60Q69.08 44.00 68 42.08Q66.92 40.16 65.92 38.32Q64.92 36.48 64.08 34.80Q63.24 33.12 62.68 32.00L62.68 32.00L62.36 32.08Q62.76 35.92 63.00 40.84Q63.24 45.76 63.24 50.16L63.24 50.16L63.24 74.08Q62.84 74.24 62.00 74.44Q61.16 74.64 60.28 74.64Z" fill="#fff"></path></svg>